<svg width="13" height="13" viewBox="0 0 13 13" fill="none" xmlns="http://www.w3.org/2000/svg">
<path d="M12.9924 9.82016C12.8765 10.7009 12.444 11.5094 11.7755 12.0946C11.1071 12.6797 10.2485 13.0016 9.36017 13C4.19908 13 5.88172e-06 8.80095 5.88172e-06 3.6399C-0.00158663 2.75153 0.320258 1.89296 0.905428 1.22454C1.4906 0.556123 2.29908 0.123569 3.17986 0.00766854C3.40259 -0.0195271 3.62814 0.026039 3.82284 0.137565C4.01755 0.249091 4.17096 0.420595 4.26018 0.626474L5.633 3.69125V3.69905C5.70131 3.85665 5.72952 4.02871 5.71512 4.19987C5.70071 4.37103 5.64414 4.53595 5.55045 4.67991C5.53875 4.69746 5.5264 4.71371 5.5134 4.72996L4.16008 6.33418C4.64694 7.32349 5.68175 8.3492 6.68407 8.83735L8.2662 7.49119C8.28173 7.47813 8.29801 7.46598 8.31495 7.45479C8.45879 7.35885 8.62428 7.30029 8.79646 7.2844C8.96863 7.26851 9.14204 7.2958 9.30101 7.36379L9.30947 7.36769L12.3717 8.73985C12.5779 8.82876 12.7498 8.98203 12.8617 9.17676C12.9736 9.37149 13.0195 9.59721 12.9924 9.82016Z" fill="#F8F8F8"/>
</svg>
