<svg width="12" height="12" viewBox="0 0 12 12" fill="none" xmlns="http://www.w3.org/2000/svg">
<path d="M11.8696 4.07609C11.9413 4.07609 12 4.01739 12 3.94565V2.96739C12 2.89565 11.9413 2.83696 11.8696 2.83696H9.19565V0.130435C9.19565 0.0586957 9.13696 0 9.06522 0H8.02174C7.95 0 7.8913 0.0586957 7.8913 0.130435V2.83696H4.17391V0.130435C4.17391 0.0586957 4.11522 0 4.04348 0H3C2.92826 0 2.86957 0.0586957 2.86957 0.130435V2.83696H0.130435C0.0586957 2.83696 0 2.89565 0 2.96739V3.94565C0 4.01739 0.0586957 4.07609 0.130435 4.07609H2.86957V7.92391H0.130435C0.0586957 7.92391 0 7.98261 0 8.05435V9.03261C0 9.10435 0.0586957 9.16304 0.130435 9.16304H2.86957V11.8696C2.86957 11.9413 2.92826 12 3 12H4.04348C4.11522 12 4.17391 11.9413 4.17391 11.8696V9.16304H7.8913V11.8696C7.8913 11.9413 7.95 12 8.02174 12H9.06522C9.13696 12 9.19565 11.9413 9.19565 11.8696V9.16304H11.8696C11.9413 9.16304 12 9.10435 12 9.03261V8.05435C12 7.98261 11.9413 7.92391 11.8696 7.92391H9.19565V4.07609H11.8696ZM7.8913 7.92391H4.17391V4.07609H7.8913V7.92391Z" fill="#F8F8F8"/>
</svg>
